# xmcd
#
# Track frame offsets:
#       150
#       12835
#       22665
#       38552
#       49630
#       59932
#       71950
#       82950
#       92975
#       103695
#       114722
#       128012
#       137025
#       147210
#       158627
#       172217
#       185185
#       200782
#       209527
#       217605
#       238067
#       247380
#
# Disc length: 3437 seconds
#
# Revision: 2
# Processed by: cddbd v1.5.1PL2 Copyright (c) Steve Scherf et al.
# Submitted via: MusiCat 1.1
#
DISCID=4d0d6b16
DTITLE=Renato E Seus Blue Caps - Renato e Seus Blue Caps
DYEAR=1900
DGENRE=
TTITLE0=The Peppermint Twist
TTITLE1=Chega
TTITLE2=I Like Twist My Baby
TTITLE3=Sinal Ocupado
TTITLE4=Meu Anjo Da Guarda
TTITLE5=Summer Comes Again
TTITLE6=Blue Caps Twist
TTITLE7=Eu Quero Twist
TTITLE8=Hey, Brotinho
TTITLE9=Cuide Certinho Do Meu Bem
TTITLE10=Namorando
TTITLE11=Bonequinha
TTITLE12=Limbo Rock
TTITLE13=Walking My Baby Back Home
TTITLE14=Estrelinha
TTITLE15=O Lobo Mau
TTITLE16=Comanche
TTITLE17=Boogie Do Bebê
TTITLE18=Ford De Bigode
TTITLE19=What'd I Say
TTITLE20=Relax
TTITLE21=Stand Up
EXTD=\n\n
EXTT0=
EXTT1=
EXTT2=
EXTT3=
EXTT4=
EXTT5=
EXTT6=
EXTT7=
EXTT8=
EXTT9=
EXTT10=
EXTT11=
EXTT12=
EXTT13=
EXTT14=
EXTT15=
EXTT16=
EXTT17=
EXTT18=
EXTT19=
EXTT20=
EXTT21=
PLAYORDER=
